<svg
  width="200"
  height="200"
  viewBox="0 0 200 200"
  fill="none"
  xmlns="http://www.w3.org/2000/svg"
>
  <title>Logo</title>
  <circle cx="100" cy="100" r="100" fill="#FFF2D0" />
  <path
    d="M52.8333 100.833C46.8333 100.833 42.1667 104 43.3333 110.5H40.1667C38.5 107.5 37.6667 104.167 37.6667 100.667C37.6667 92.8333 41.8333 87.5 47.3333 84.8333C50.6667 83.3333 54.3333 82.6667 58 82.1667V77.8333C58 68.6667 62.3333 65.3333 68 61.8333C72.6667 58.8333 77.3333 55.8333 82 52.8333C81.5 52.8333 80.8333 53 80.1667 53C72.5 53 67.1667 49 59.6667 49C53.8333 49 49.6667 52 48 56.3333H44.1667C48.3333 46.1667 58.5 35.6667 73 35.6667C80.8333 35.6667 87.8333 38.8333 95.8333 38.8333C101.5 38.8333 106.833 37 110.667 34.6667L109.667 38.5L85 57.6667C81.3333 60.5 79.5 63.8333 79.5 70V111.333C79.5 132 64.8333 142.333 49.3333 146.167L47.8333 142.167C57 136.833 58 126.167 58 112.167C58 108.5 58 104.667 58 100.833C56.3333 100.833 54.5 100.833 52.8333 100.833ZM120.833 141C124.833 143.167 128.5 145.667 131.5 148.333L145.167 142V123.667L120.833 136C120.833 137.667 120.833 139.333 120.833 141ZM120.833 90.8333C120.833 98.1667 120.833 105.667 120.833 113.167L142.833 102C136.333 97.5 128.833 93.6667 120.833 90.8333ZM116.167 138.833C116.167 108.5 116.167 78.1667 116.167 47.8333C112.5 50.6667 109.5 54.8333 109.5 60V103.667C109.5 119.833 100.667 127.5 91.8333 135C93 135 94 134.833 95.1667 134.833C103 134.833 110 136.333 116.167 138.833ZM120.833 118.5C120.833 122.5 120.833 126.5 120.833 130.667L145.167 118.333V106.167L120.833 118.5ZM120.833 47C120.833 61.1667 120.833 75.3333 120.833 89.6667L143 73L120.833 47ZM144.167 79C152.833 82.1667 160.5 86.6667 167 92V133.833L111.333 162.667C101.333 157.5 90 154.5 78.8333 154.5C63.8333 154.5 52.5 159.667 44.5 167.333H40.3333C49.1667 152 64.1667 139.833 83 136C85.6667 132.167 87.3333 127.333 87.3333 120.667V68.6667C99.8333 52.6667 117.167 39.8333 138 32.8333L165 64.5L144.167 79Z"
    fill="black"
  />
</svg>
